<?xml version="1.0"?>
<svg xmlns="http://www.w3.org/2000/svg" xmlns:xlink="http://www.w3.org/1999/xlink" xmlns:svgjs="http://svgjs.com/svgjs" version="1.1" width="512" height="512" x="0" y="0" viewBox="0 0 128 128" style="enable-background:new 0 0 512 512" xml:space="preserve" class=""><g transform="matrix(1.1600000000000001,0,0,1.1600000000000001,-10.24000061035153,-10.240000000000009)"><path xmlns="http://www.w3.org/2000/svg" d="m102.635 23.6-13.335-13.337a1.75 1.75 0 0 0 -1.237-.513h-61.463a1.75 1.75 0 0 0 -1.75 1.75v105a1.75 1.75 0 0 0 1.75 1.75h74.8a1.75 1.75 0 0 0 1.75-1.75v-91.664a1.75 1.75 0 0 0 -.515-1.236zm-12.823-7.875 7.361 7.361h-7.361zm-61.46 99.025v-101.5h57.96v11.586a1.75 1.75 0 0 0 1.75 1.75h11.586v88.164z" fill="#008acf" data-original="#000000" style=""/><path xmlns="http://www.w3.org/2000/svg" d="m90.619 73.822h-53.238a1.75 1.75 0 1 0 0 3.5h53.238a1.75 1.75 0 0 0 0-3.5z" fill="#008acf" data-original="#000000" style=""/><path xmlns="http://www.w3.org/2000/svg" d="m37.381 86.625h26.619a1.75 1.75 0 0 0 0-3.5h-26.619a1.75 1.75 0 0 0 0 3.5z" fill="#008acf" data-original="#000000" style=""/><path xmlns="http://www.w3.org/2000/svg" d="m90.619 92.428h-53.238a1.75 1.75 0 1 0 0 3.5h53.238a1.75 1.75 0 0 0 0-3.5z" fill="#008acf" data-original="#000000" style=""/><path xmlns="http://www.w3.org/2000/svg" d="m64 101.732h-26.619a1.75 1.75 0 1 0 0 3.5h26.619a1.75 1.75 0 0 0 0-3.5z" fill="#008acf" data-original="#000000" style=""/><path xmlns="http://www.w3.org/2000/svg" d="m61.256 62.8a11.667 11.667 0 1 0 16.256-16.361v-24.388a1.75 1.75 0 0 0 -1.75-1.75h-39a1.75 1.75 0 0 0 -1.75 1.75v39a1.75 1.75 0 0 0 1.75 1.75zm9.37 1.236a8.182 8.182 0 1 1 8.182-8.182 8.191 8.191 0 0 1 -8.182 8.183zm-11.114-40.236v7.61l-2.157-1.726a1.751 1.751 0 0 0 -2.187 0l-2.156 1.726v-7.61zm-21 0h11v11.25a1.75 1.75 0 0 0 2.843 1.367l3.907-3.125 3.907 3.125a1.75 1.75 0 0 0 2.843-1.367v-11.25h11v20.878a11.68 11.68 0 0 0 -14.547 14.622h-20.953z" fill="#008acf" data-original="#000000" style=""/><path xmlns="http://www.w3.org/2000/svg" d="m73.242 52.279-4.042 4.421-1.4-1.1a1.75 1.75 0 0 0 -2.164 2.751l2.681 2.109a1.75 1.75 0 0 0 2.375-.2l5.135-5.625a1.75 1.75 0 0 0 -2.585-2.359z" fill="#008acf" data-original="#000000" style=""/></g></svg>
